<?xml version="1.0" encoding="utf-8"?>
<!-- Generator: Adobe Illustrator 15.1.0, SVG Export Plug-In  -->
<!DOCTYPE svg PUBLIC "-//W3C//DTD SVG 1.1//EN" "http://www.w3.org/Graphics/SVG/1.1/DTD/svg11.dtd" [
	<!ENTITY ns_flows "http://ns.adobe.com/Flows/1.0/">
]>
<svg version="1.1"
	 xmlns="http://www.w3.org/2000/svg" xmlns:xlink="http://www.w3.org/1999/xlink" xmlns:a="http://ns.adobe.com/AdobeSVGViewerExtensions/3.0/"
	 x="0px" y="0px" width="60px" height="55px" viewBox="0 0 60 55" enable-background="new 0 0 60 55" xml:space="preserve">
<defs>
</defs>
<path d="M10.891,0.084c6.01,0,10.879,4.869,10.879,10.878c0,6.022-4.87,10.891-10.879,10.891C4.868,21.854,0,16.985,0,10.963
	C0,4.953,4.868,0.084,10.891,0.084"/>
<path d="M39.665,5.479c1.184-2.084,3.046-3.721,5.27-4.637c5.531-2.313,11.91,0.304,14.234,5.862
	c2.301,5.543-0.33,11.923-5.861,14.235c-3.971,1.904-6.776,2.089-10.521,8.637c-3.718,6.524-2.652,8.446-2.015,12.545
	c1.017,5.327-2.03,10.602-7.145,12.363c-5.685,1.948-11.887-1.059-13.847-6.743c-1.947-5.684,1.073-11.886,6.757-13.833
	c3.806-1.513,5.995-1.635,9.688-8.102c3.721-6.469,2.552-8.963,2.147-13.188C37.968,10.161,38.43,7.642,39.665,5.479 M10.891,0.084
	C4.868,0.084,0,4.953,0,10.963c0,6.022,4.868,10.891,10.891,10.891c6.01,0,10.879-4.869,10.879-10.891
	C21.771,4.953,16.901,0.084,10.891,0.084"/>
</svg>
